<svg width="213" height="60" viewBox="0 0 213 60" fill="none" xmlns="http://www.w3.org/2000/svg">
<g clip-path="url(#clip0_2_2)">
<path d="M209.949 4.27665L200.653 13.5725C200.415 13.8103 200.282 14.1327 200.282 14.4689V43.8412C200.282 44.9706 201.647 45.5361 202.446 44.7376L211.741 35.4419C211.979 35.2042 212.113 34.8817 212.113 34.5455V5.17298C212.113 4.04366 210.747 3.4781 209.949 4.27665Z" fill="#FF4402"/>
<path fill-rule="evenodd" clip-rule="evenodd" d="M171.549 11.8309C171.316 11.8309 171.127 11.6418 171.127 11.4084V10.7384C171.127 10.6263 171.171 10.5188 171.251 10.4396C171.517 10.1734 171.972 10.3619 171.972 10.7384V11.4084C171.972 11.6418 171.783 11.8309 171.549 11.8309Z" fill="#FF4402"/>
<path fill-rule="evenodd" clip-rule="evenodd" d="M174.93 11.8309C174.697 11.8309 174.507 11.6417 174.507 11.4083V7.35795C174.507 7.24589 174.552 7.13842 174.631 7.05917C174.897 6.79299 175.352 6.98151 175.352 7.35795V11.4083C175.352 11.6417 175.163 11.8309 174.93 11.8309Z" fill="#FF4402"/>
<path fill-rule="evenodd" clip-rule="evenodd" d="M178.31 11.8308C178.076 11.8308 177.887 11.6416 177.887 11.4082V3.97758C177.887 3.86552 177.932 3.75804 178.011 3.6788C178.277 3.41262 178.732 3.60114 178.732 3.97758V11.4082C178.732 11.6416 178.543 11.8308 178.31 11.8308Z" fill="#FF4402"/>
<path fill-rule="evenodd" clip-rule="evenodd" d="M181.69 11.831C181.457 11.831 181.268 11.6418 181.268 11.4085V0.422536C181.268 0.189175 181.457 -5.43769e-07 181.69 0C181.923 5.4377e-07 182.113 0.189177 182.113 0.422537V11.4085C182.113 11.6418 181.923 11.831 181.69 11.831Z" fill="#FF4402"/>
<path fill-rule="evenodd" clip-rule="evenodd" d="M185.07 11.831C184.837 11.831 184.648 11.6418 184.648 11.4085V0.422536C184.648 0.189176 184.837 -4.98519e-07 185.07 0C185.304 4.98511e-07 185.493 0.189177 185.493 0.422537V11.4085C185.493 11.6418 185.304 11.831 185.07 11.831Z" fill="#FF4402"/>
<path fill-rule="evenodd" clip-rule="evenodd" d="M188.451 11.831C188.217 11.831 188.028 11.6418 188.028 11.4085V0.422536C188.028 0.189176 188.217 0 188.451 0C188.684 0 188.873 0.189175 188.873 0.422535V11.4085C188.873 11.6418 188.684 11.831 188.451 11.831Z" fill="#FF4402"/>
<path fill-rule="evenodd" clip-rule="evenodd" d="M191.831 11.831C191.598 11.831 191.409 11.6418 191.409 11.4085V0.422536C191.409 0.189176 191.598 0 191.831 0C192.065 0 192.254 0.189176 192.254 0.422537V11.4085C192.254 11.6418 192.065 11.831 191.831 11.831Z" fill="#FF4402"/>
<path fill-rule="evenodd" clip-rule="evenodd" d="M195.212 11.831C194.978 11.831 194.789 11.6418 194.789 11.4085V0.422536C194.789 0.189176 194.978 0 195.212 0C195.445 0 195.634 0.189175 195.634 0.422535V11.4085C195.634 11.6418 195.445 11.831 195.212 11.831Z" fill="#FF4402"/>
<path fill-rule="evenodd" clip-rule="evenodd" d="M198.591 11.831C198.358 11.831 198.169 11.6418 198.169 11.4085V0.422536C198.169 0.189176 198.358 0 198.591 0C198.825 0 199.014 0.189175 199.014 0.422535V11.4085C199.014 11.6418 198.825 11.831 198.591 11.831Z" fill="#FF4402"/>
<path fill-rule="evenodd" clip-rule="evenodd" d="M202.271 8.15352C202.005 8.41933 201.55 8.23073 201.55 7.85447V0.422536C201.55 0.189176 201.739 0 201.972 0C202.206 0 202.395 0.189175 202.395 0.422536V7.85447C202.395 7.96667 202.35 8.07426 202.271 8.15352Z" fill="#FF4402"/>
<path fill-rule="evenodd" clip-rule="evenodd" d="M205.651 4.77165C205.385 5.03784 204.93 4.84932 204.93 4.47288V0.422536C204.93 0.189176 205.119 5.33262e-07 205.353 0C205.586 -5.33256e-07 205.775 0.189175 205.775 0.422535V4.47288C205.775 4.58494 205.731 4.69241 205.651 4.77165Z" fill="#FF4402"/>
<path fill-rule="evenodd" clip-rule="evenodd" d="M209.031 1.39137C208.765 1.65755 208.31 1.46903 208.31 1.09259V0.422536C208.31 0.189176 208.499 0 208.733 0C208.966 0 209.155 0.189176 209.155 0.422536V1.09259C209.155 1.20465 209.111 1.31213 209.031 1.39137Z" fill="#FF4402"/>
<path d="M22.9099 54.7182C23.2971 54.7182 23.6314 54.8591 23.9129 55.1408C24.1944 55.4225 24.3352 55.757 24.3352 56.1443V58.0457C24.3352 58.433 24.1944 58.7675 23.9129 59.0492C23.6314 59.3309 23.2971 59.4717 22.9099 59.4717H1.42527C1.03816 59.4717 0.703839 59.3309 0.422303 59.0492C0.140768 58.7675 0 58.433 0 58.0457V23.9259C0 23.5386 0.140768 23.2041 0.422303 22.9224C0.703839 22.6407 1.03816 22.4998 1.42527 22.4998H3.58958C3.97669 22.4998 4.31101 22.6407 4.59255 22.9224C4.87408 23.2041 5.01485 23.5386 5.01485 23.9259V54.7182H22.9099Z" fill="#FF4402"/>
<path d="M27.5879 43.0986C27.7286 41.4789 28.1157 39.9648 28.7492 38.5563C29.3826 37.1479 30.2097 35.9155 31.2302 34.8591C32.2508 33.8028 33.4649 32.9753 34.8726 32.3767C36.3155 31.7781 37.9167 31.4788 39.6763 31.4788C41.5766 31.4788 43.2659 31.7957 44.7439 32.4295C46.2572 33.0281 47.5417 33.9084 48.5974 35.0704C49.6532 36.2324 50.4626 37.6408 51.0257 39.2958C51.5887 40.9507 51.8703 42.7993 51.8703 44.8415V46.2676C51.8703 46.6549 51.7295 46.9894 51.448 47.2711C51.1664 47.5528 50.8321 47.6937 50.445 47.6937H32.286V48.0106C32.3564 50.4049 33.0778 52.2535 34.4503 53.5563C35.858 54.824 37.6 55.4578 39.6763 55.4578C41.6118 55.4578 43.0547 55.1937 44.0049 54.6655C44.9903 54.1021 45.7821 53.4859 46.3803 52.8169C46.6619 52.5352 46.9082 52.3416 47.1194 52.2359C47.3305 52.1303 47.6473 52.0775 48.0696 52.0775H49.6532C50.0403 52.0775 50.3922 52.2183 50.709 52.5C51.0257 52.7817 51.1488 53.1162 51.0785 53.5035C50.9729 54.1373 50.6738 54.8416 50.1811 55.6162C49.6884 56.3556 48.9669 57.0599 48.0168 57.7289C47.1018 58.3627 45.9404 58.9085 44.5328 59.3662C43.1603 59.7888 41.5415 60 39.6763 60C37.9167 60 36.333 59.7007 34.9254 59.1021C33.5177 58.4683 32.286 57.6233 31.2302 56.5669C30.2097 55.4754 29.3826 54.2078 28.7492 52.7641C28.1157 51.2852 27.7286 49.6831 27.5879 47.9577C27.4119 46.338 27.4119 44.7183 27.5879 43.0986ZM32.286 43.257H47.1194V43.0986C47.1194 40.9507 46.4331 39.2429 45.0606 37.9753C43.7234 36.6725 41.9286 36.0211 39.6763 36.0211C38.6557 36.0211 37.7055 36.1972 36.8257 36.5493C35.9459 36.8662 35.1717 37.3415 34.5031 37.9753C33.8344 38.5739 33.3065 39.3134 32.9194 40.1936C32.5323 41.0739 32.3212 42.0422 32.286 43.0986V43.257Z" fill="#FF4402"/>
<path d="M56.2855 52.5528C56.2855 51.1444 56.567 49.912 57.1301 48.8556C57.6932 47.7993 58.4674 46.9014 59.4528 46.162C60.4381 45.4225 61.5819 44.8239 62.884 44.3662C64.2213 43.9084 65.629 43.5563 67.107 43.3098L74.5501 42.0951V41.4084C74.5501 39.6127 73.9518 38.2746 72.7553 37.3943C71.594 36.4788 70.1335 36.0211 68.3739 36.0211C66.8255 36.0211 65.6465 36.3028 64.8371 36.8662C64.0629 37.4296 63.3943 38.0986 62.8312 38.8732C62.62 39.1549 62.3913 39.3486 62.1449 39.4542C61.8986 39.5598 61.5643 39.6127 61.142 39.6127H59.5583C59.1712 39.6127 58.8193 39.4718 58.5026 39.1901C58.221 38.9084 58.0979 38.5739 58.1331 38.1866C58.2035 37.4119 58.5026 36.6197 59.0305 35.8098C59.5935 35 60.3326 34.2781 61.2476 33.6443C62.1977 33.0105 63.2711 32.5 64.4676 32.1126C65.6993 31.6901 67.0014 31.4788 68.3739 31.4788C69.9576 31.4788 71.418 31.7077 72.7553 32.1655C74.1278 32.6232 75.2891 33.2922 76.2393 34.1725C77.2247 35.0528 77.9813 36.1443 78.5092 37.4472C79.0723 38.75 79.3538 40.2465 79.3538 41.9366V58.0458C79.3538 58.4331 79.213 58.7676 78.9315 59.0493C78.65 59.331 78.3156 59.4718 77.9285 59.4718H75.9754C75.5883 59.4718 75.2539 59.331 74.9724 59.0493C74.6909 58.7676 74.5501 58.4331 74.5501 58.0458V55.8803C74.2334 56.5493 73.7407 57.1479 73.072 57.6761C72.4034 58.169 71.6292 58.5916 70.7494 58.9437C69.9048 59.2958 69.0074 59.5599 68.0572 59.7359C67.1422 59.912 66.28 60 65.4706 60C64.0981 60 62.8312 59.8064 61.6699 59.419C60.5437 59.0317 59.5759 58.5211 58.7665 57.8873C57.9923 57.2183 57.3764 56.4261 56.9189 55.5106C56.4966 54.5951 56.2855 53.6092 56.2855 52.5528ZM65.9985 55.4578C67.2654 55.4578 68.4267 55.2641 69.4825 54.8768C70.5382 54.4894 71.4356 53.9613 72.1746 53.2923C72.9489 52.588 73.5295 51.7606 73.9166 50.8099C74.3389 49.8592 74.5501 48.8028 74.5501 47.6408V46.3204L68.3211 47.3239C66.104 47.6761 64.3444 48.2394 63.0423 49.0141C61.7402 49.7887 61.0892 50.7923 61.0892 52.0247C61.0892 52.412 61.1772 52.7993 61.3531 53.1866C61.5291 53.574 61.8106 53.9437 62.1977 54.2958C62.5848 54.6479 63.0775 54.9296 63.6758 55.1409C64.3092 55.3521 65.0835 55.4578 65.9985 55.4578Z" fill="#FF4402"/>
<path d="M97.7186 31.4787C99.9005 31.4787 101.643 31.8661 102.945 32.6407C104.247 33.3802 105.232 34.19 105.901 35.0703V23.3977C105.901 23.0104 106.042 22.6759 106.323 22.3942C106.605 22.1125 106.939 21.9717 107.326 21.9717H109.279C109.666 21.9717 110.001 22.1125 110.282 22.3942C110.564 22.6759 110.704 23.0104 110.704 23.3977V58.0457C110.704 58.433 110.564 58.7675 110.282 59.0492C110.001 59.3309 109.666 59.4717 109.279 59.4717H107.326C106.939 59.4717 106.605 59.3309 106.323 59.0492C106.042 58.7675 105.901 58.433 105.901 58.0457V56.4084C105.197 57.3591 104.194 58.2041 102.892 58.9436C101.59 59.6478 99.8653 59.9999 97.7186 59.9999C96.0646 59.9999 94.5161 59.7182 93.0733 59.1549C91.6656 58.5563 90.4339 57.7112 89.3781 56.6196C88.3224 55.5281 87.4778 54.2077 86.8443 52.6584C86.2109 51.1091 85.8413 49.3661 85.7358 47.4295C85.7006 46.9013 85.683 46.3379 85.683 45.7393C85.683 45.1055 85.7006 44.5245 85.7358 43.9964C85.8413 42.0597 86.2109 40.3168 86.8443 38.7675C87.4778 37.2182 88.3224 35.9154 89.3781 34.859C90.4339 33.7675 91.6656 32.94 93.0733 32.3766C94.5161 31.778 96.0646 31.4787 97.7186 31.4787ZM105.901 48.0105C105.936 47.4823 105.954 46.7957 105.954 45.9506C105.954 45.0703 105.936 44.3661 105.901 43.8379C105.795 41.3379 105.039 39.4189 103.631 38.0809C102.258 36.7076 100.464 36.021 98.2465 36.021C95.9238 36.021 94.0938 36.7604 92.7566 38.2393C91.4193 39.7182 90.6802 41.7252 90.5395 44.2605C90.5043 45.2464 90.5043 46.2323 90.5395 47.2182C90.6802 49.7534 91.4193 51.7605 92.7566 53.2393C94.0938 54.7182 95.9238 55.4577 98.2465 55.4577C100.428 55.4577 102.223 54.7886 103.631 53.4506C105.039 52.1126 105.795 50.2992 105.901 48.0105Z" fill="#FF4402"/>
<path d="M147.363 22.7065C147.751 22.7065 148.087 22.847 148.369 23.1279C148.651 23.4088 148.792 23.7424 148.792 24.1287V58.155C148.792 58.5413 148.651 58.8748 148.369 59.1558C148.087 59.4367 147.751 59.5771 147.363 59.5771H140.431C140.043 59.5771 139.708 59.4367 139.426 59.1558C139.143 58.8748 139.002 58.5413 139.002 58.155V45.2503H127.255V58.155C127.255 58.5413 127.114 58.8748 126.831 59.1558C126.549 59.4367 126.214 59.5771 125.826 59.5771H118.894C118.506 59.5771 118.17 59.4542 117.888 59.2084C117.606 58.9275 117.465 58.5764 117.465 58.155V24.1287C117.465 23.7424 117.606 23.4088 117.888 23.1279C118.17 22.847 118.506 22.7065 118.894 22.7065H125.826C126.214 22.7065 126.549 22.847 126.831 23.1279C127.114 23.4088 127.255 23.7424 127.255 24.1287V36.8227H139.002V24.1287C139.002 23.7424 139.143 23.4088 139.426 23.1279C139.708 22.847 140.043 22.7065 140.431 22.7065H147.363Z" fill="white"/>
<path d="M165.113 58.1551C165.113 58.5414 164.972 58.8749 164.69 59.1559C164.408 59.4368 164.072 59.5772 163.684 59.5772H157.017C156.629 59.5772 156.293 59.4368 156.011 59.1559C155.729 58.8749 155.588 58.5414 155.588 58.1551V33.6098C155.588 33.2235 155.729 32.8899 156.011 32.609C156.293 32.3281 156.629 32.1876 157.017 32.1876H163.684C164.072 32.1876 164.408 32.3281 164.69 32.609C164.972 32.8899 165.113 33.2235 165.113 33.6098V58.1551ZM165.113 27.8685C165.113 28.2548 164.972 28.5884 164.69 28.8693C164.408 29.1502 164.072 29.2907 163.684 29.2907H157.017C156.629 29.2907 156.293 29.1502 156.011 28.8693C155.729 28.5884 155.588 28.2548 155.588 27.8685V22.5486C155.588 22.1624 155.729 21.8288 156.011 21.5478C156.293 21.2669 156.629 21.1265 157.017 21.1265H163.684C164.072 21.1265 164.408 21.2669 164.69 21.5478C164.972 21.8288 165.113 22.1624 165.113 22.5486V27.8685Z" fill="white"/>
<path d="M183.894 48.8848C183.894 49.6924 184.07 50.3245 184.423 50.781C184.775 51.2023 185.358 51.413 186.169 51.413H190.402C190.79 51.413 191.126 51.5535 191.408 51.8344C191.69 52.1153 191.831 52.4489 191.831 52.8352V58.1551C191.831 58.5414 191.69 58.8749 191.408 59.1559C191.126 59.4368 190.79 59.5772 190.402 59.5772H185.375C183.717 59.5772 182.2 59.349 180.824 58.8925C179.484 58.4009 178.337 57.7162 177.385 56.8383C176.432 55.9253 175.691 54.8367 175.162 53.5726C174.633 52.2733 174.368 50.8161 174.368 49.2008V40.3519H170.452C170.064 40.3519 169.729 40.2114 169.447 39.9305C169.165 39.6496 169.024 39.316 169.024 38.9297V33.6098C169.024 33.2235 169.165 32.8899 169.447 32.609C169.729 32.3281 170.064 32.1876 170.452 32.1876H174.368V23.6021C174.368 23.2158 174.509 22.8822 174.792 22.6013C175.074 22.3204 175.409 22.1799 175.797 22.1799H182.465C182.853 22.1799 183.188 22.3204 183.47 22.6013C183.752 22.8822 183.894 23.2158 183.894 23.6021V32.1876H189.873C190.261 32.1876 190.596 32.3281 190.879 32.609C191.161 32.8899 191.302 33.2235 191.302 33.6098V38.9297C191.302 39.316 191.161 39.6496 190.879 39.9305C190.596 40.2114 190.261 40.3519 189.873 40.3519H183.894V48.8848Z" fill="white"/>
</g>
<defs>
<clipPath id="clip0_2_2">
<rect width="213" height="60" fill="white"/>
</clipPath>
</defs>
</svg>
